{"title":"Deadpool 2016 HD-TS XVID AC3 HQ Hive-CM8","uid":13682581,"size":1547027204,"categoryP":"video","categoryS":"movies","magnet":"?xt=urn:btih:0b0a7c90bed0184dc95cd982cd0e54c3e94db9d2&amp;dn=Deadpool+2016+HD-TS+XVID+AC3+HQ+Hive-CM8+++&amp;tr=udp%3A%2F%2Ftracker.leechers-paradise.org%3A6969&amp;tr=udp%3A%2F%2Fzer0day.ch%3A1337&amp;tr=udp%3A%2F%2Fopen.demonii.com%3A1337&amp;tr=udp%3A%2F%2Ftracker.coppersurfer.tk%3A6969&amp;tr=udp%3A%2F%2Fexodus.desync.com%3A6969","seeders":0,"leechers":3,"uploader":"makintos13","files":3,"time":1456497586,"description":"screens:\r\n \nhttp://imgmak.com/KQ1\r\n \nhttp://imgmak.com/KQU\r\n \nhttp://imgmak.com/KQ3\r\n \nhttp://imgmak.com/KQG\r\n\r\n\r\n\r\nDeadpool.2016.HD-TS.XVID.AC3.HQ.Hive-CM8\r\n\r\nThx Hive\r\n\r\nCM8 Doing It Right The First Time\r\n\r\nSources:\r\n\r\nVideo: HDCAM thx\r\n\r\nAudio: Exclusive Line Thx\r\n\r\n\r\nNotes:\r\n\r\nWaited for a complete good source to make the perfect release, best possible Video and best possible Line combined\r\nWouldnt bother you with an incomplete low quality v1-v3 or proper and new tag for this blockbuster.\r\nOne good release is the way to go even if it takes a week or more, patience\r\nthx for everyone involved\r\n\r\nEncode:\r\n\r\nVideo was already awesome, rotated,fixed ar and perspective, fixed rgb and movement parts.\r\nappended credits and both afterend creditsscenes to one single file, as it should be.\r\nfull video nothing is missing\r\n\r\nAudio was a nice line, sounded weird though, like mono sourround, fixed the channels to normal stereo\r\nsounds perfect now, and lipsycned it to my video\r\n\r\nwont get better than this till retail\r\nenjoy\r\n\r\nVideo: 720x314 @bitrate 1700 2pass\r\nAudio: Line AC3 2.0 Stereo\r\nSample: yes included\r\n\r\n\r\n \nhttp://www.imdb.com/title/tt1431045/\r\n\r\n\r\n\r\nGeneral\r\nComplete name                  : Deadpool.2016.HD-TS.XVID.AC3.HQ.Hive-CM8.avi\r\nFormat                         : AVI\r\nFormat/Info                    : Audio Video Interleave\r\nFile size                      : 1.42 GiB\r\nDuration                       : 1h 43mn\r\nOverall bit rate               : 1 966 Kbps\r\nWriting application            : Nandub v1.0rc2\r\nWriting library                : Nandub build 1853/release\r\n\r\nVideo\r\nID                             : 0\r\nFormat                         : MPEG-4 Visual\r\nFormat profile                 : Advanced   \r\nFormat settings, BVOP          : 2\r\nFormat settings, QPel          : Yes\r\nFormat settings, GMC           : No warppoints\r\nFormat settings, Matrix        : Default (H.263)\r\nMuxing mode                    : Packed bitstream\r\nCodec ID                       : XVID\r\nCodec ID/Hint                  : XviD\r\nDuration                       : 1h 43mn\r\nBit rate                       : 1 700 Kbps\r\nWidth                          : 720 pixels\r\nHeight                         : 314 pixels\r\nDisplay aspect ratio           : 2.25:1\r\nFrame rate                     : 23.976 fps\r\nColor space                    : YUV\r\nChroma subsampling             : 4:2:0\r\nBit depth                      : 8 bits\r\nScan type                      : Progressive\r\nCompression mode               : Lossy\r\nBits/(Pixel*Frame)             : 0.314\r\nStream size                    : 1.23 GiB (86%)\r\nWriting library                : XviD 1.2.1 (UTC 2008-12-04)\r\n\r\nAudio\r\nID                             : 1\r\nFormat                         : AC-3\r\nFormat/Info                    : Audio Coding 3\r\nMode extension                 : CM (complete main)\r\nFormat settings, Endianness    : Big\r\nCodec ID                       : 2000\r\nDuration                       : 1h 43mn\r\nBit rate mode                  : Constant\r\nBit rate                       : 256 Kbps\r\nChannel(s)                     : 2 channels\r\nChannel positions              : Front: L R\r\nSampling rate                  : 48.0 KHz\r\nBit depth                      : 16 bits\r\nCompression mode               : Lossy\r\nDelay relative to video        : 14ms\r\nStream size                    : 190 MiB (13%)\r\nAlignment                      : Split accross interleaves\r\nInterleave, duration           : 42 ms (1.00 video frame)\r\nInterleave, preload duration   : 500 ms","torrent":{"xt":"urn:btih:0b0a7c90bed0184dc95cd982cd0e54c3e94db9d2","amp;dn":"Deadpool+2016+HD-TS+XVID+AC3+HQ+Hive-CM8+++","amp;tr":["udp%3A%2F%2Ftracker.leechers-paradise.org%3A6969","udp%3A%2F%2Fzer0day.ch%3A1337","udp%3A%2F%2Fopen.demonii.com%3A1337","udp%3A%2F%2Ftracker.coppersurfer.tk%3A6969","udp%3A%2F%2Fexodus.desync.com%3A6969"],"infoHash":"0b0a7c90bed0184dc95cd982cd0e54c3e94db9d2","infoHashBuffer":{"type":"Buffer","data":[11,10,124,144,190,208,24,77,201,92,217,130,205,14,84,195,233,77,185,210]},"announce":[],"urlList":[]}}